<svg xmlns="http://www.w3.org/2000/svg" viewBox="0 0 32 32">
  <rect x="1" y="1" width="30" height="30" rx="4" fill="#C8A256" stroke="#6B4E1B" stroke-width="1"/>
  <rect x="4" y="4" width="5" height="5" fill="#D4B06A"/>
  <rect x="11" y="4" width="5" height="5" fill="#D4B06A"/>
  <rect x="18" y="4" width="5" height="5" fill="#D4B06A"/>
  <rect x="25" y="4" width="5" height="5" fill="#D4B06A" rx="0"/>
  <rect x="4" y="11" width="5" height="5" fill="#D4B06A"/>
  <rect x="11" y="11" width="5" height="5" fill="#D4B06A"/>
  <rect x="18" y="11" width="5" height="5" fill="#D4B06A"/>
  <rect x="25" y="11" width="5" height="5" fill="#D4B06A"/>
  <rect x="4" y="18" width="5" height="5" fill="#7A3F14"/>
  <rect x="11" y="18" width="5" height="5" fill="#7A3F14"/>
  <rect x="18" y="18" width="5" height="5" fill="#7A3F14"/>
  <rect x="25" y="18" width="5" height="5" fill="#7A3F14"/>
  <rect x="4" y="25" width="5" height="5" fill="#5C2E0E"/>
  <rect x="11" y="25" width="5" height="5" fill="#5C2E0E"/>
  <rect x="18" y="25" width="5" height="5" fill="#5C2E0E"/>
  <rect x="25" y="25" width="5" height="5" fill="#5C2E0E"/>
</svg>
